<?xml version="1.0" encoding="UTF-8" standalone="no"?>
<!DOCTYPE svg PUBLIC "-//W3C//DTD SVG 1.1//EN"
 "http://www.w3.org/Graphics/SVG/1.1/DTD/svg11.dtd">
<!-- Generated by graphviz version 2.38.0 (20140413.2041)
 -->
<!-- Title: PROV Pages: 1 -->
<svg width="286pt" height="243pt"
 viewBox="0.00 0.00 286.00 243.00" xmlns="http://www.w3.org/2000/svg" xmlns:xlink="http://www.w3.org/1999/xlink">
<g id="graph0" class="graph" transform="scale(1 1) rotate(0) translate(4 239)">
<title>PROV</title>
<polygon fill="white" stroke="none" points="-4,4 -4,-239 282,-239 282,4 -4,4"/>
<g id="clust1" class="cluster"><title>clusterurn:uuid:63cf5f9b&#45;7962&#45;4283&#45;81d3&#45;3aab755a04b6</title>
<g id="a_clust1"><a xlink:href="urn:uuid:63cf5f9b-7962-4283-81d3-3aab755a04b6" xlink:title="63cf5f9b&#45;7962&#45;4283&#45;81d3&#45;3aab755a04b6">
<polygon fill="none" stroke="black" points="8,-8 8,-227 270,-227 270,-8 8,-8"/>
<text text-anchor="middle" x="139" y="-15.8" font-family="Times New Roman,serif" font-size="14.00">63cf5f9b&#45;7962&#45;4283&#45;81d3&#45;3aab755a04b6</text>
</a>
</g>
</g>
<!-- http://www.example.orgpublishing -->
<g id="node1" class="node"><title>http://www.example.orgpublishing</title>
<g id="a_node1"><a xlink:href="http://www.example.orgpublishing" xlink:title="publishing">
<polygon fill="#9fb1fc" stroke="#0000ff" points="90,-219 16,-219 16,-183 90,-183 90,-219"/>
<text text-anchor="middle" x="53" y="-197.3" font-family="Times New Roman,serif" font-size="14.00">publishing</text>
</a>
</g>
</g>
<!-- http://www.example.orgexample -->
<g id="node2" class="node"><title>http://www.example.orgexample</title>
<g id="a_node2"><a xlink:href="http://www.example.orgexample" xlink:title="example">
<ellipse fill="#fffc87" stroke="#808080" cx="185" cy="-129" rx="40.0939" ry="18"/>
<text text-anchor="middle" x="185" y="-125.3" font-family="Times New Roman,serif" font-size="14.00">example</text>
</a>
</g>
</g>
<!-- http://www.example.orgexample&#45;&gt;http://www.example.orgpublishing -->
<g id="edge5" class="edge"><title>http://www.example.orgexample&#45;&gt;http://www.example.orgpublishing</title>
<path fill="none" stroke="black" d="M159.861,-143.331C141.273,-153.189 115.555,-166.827 94.0079,-178.253"/>
<polygon fill="black" stroke="black" points="92.2563,-175.221 85.0614,-182.998 95.5359,-181.405 92.2563,-175.221"/>
<text text-anchor="middle" x="159.321" y="-156.422" font-family="Times New Roman,serif" font-size="8.00">gen</text>
</g>
<!-- http://www.example.orgwww.example.org -->
<g id="node6" class="node"><title>http://www.example.orgwww.example.org</title>
<g id="a_node6"><a xlink:href="http://www.example.orgwww.example.org" xlink:title="www.example.org">
<ellipse fill="#fffc87" stroke="#808080" cx="185" cy="-201" rx="76.8869" ry="18"/>
<text text-anchor="middle" x="185" y="-197.3" font-family="Times New Roman,serif" font-size="14.00">www.example.org</text>
</a>
</g>
</g>
<!-- http://www.example.orgexample&#45;&gt;http://www.example.orgwww.example.org -->
<g id="edge3" class="edge"><title>http://www.example.orgexample&#45;&gt;http://www.example.orgwww.example.org</title>
<path fill="none" stroke="black" d="M185,-147.303C185,-155.017 185,-164.288 185,-172.888"/>
<polygon fill="black" stroke="black" points="181.5,-172.896 185,-182.896 188.5,-172.896 181.5,-172.896"/>
<text text-anchor="middle" x="197.99" y="-152.903" font-family="Times New Roman,serif" font-size="8.00">spe</text>
</g>
<!-- &#45;attrs0 -->
<g id="node3" class="node"><title>&#45;attrs0</title>
<polygon fill="none" stroke="gray" points="238.5,-75 139.5,-75 139.5,-39 244.5,-39 244.5,-69 238.5,-75"/>
<polyline fill="none" stroke="gray" points="238.5,-75 238.5,-69 "/>
<polyline fill="none" stroke="gray" points="244.5,-69 238.5,-69 "/>
<text text-anchor="start" x="150" y="-54" font-family="Times New Roman,serif" font-size="10.00">type:</text>
<text text-anchor="start" x="173" y="-54" font-family="Times New Roman,serif" font-size="10.00">prov:Collection</text>
</g>
<!-- &#45;attrs0&#45;&gt;http://www.example.orgexample -->
<g id="edge1" class="edge"><title>&#45;attrs0&#45;&gt;http://www.example.orgexample</title>
<path fill="none" stroke="gray" stroke-dasharray="5,2" d="M190.27,-75.3034C189.185,-86.1537 187.792,-100.083 186.71,-110.896"/>
</g>
<!-- http://www.example.orgMore -->
<g id="node4" class="node"><title>http://www.example.orgMore</title>
<g id="a_node4"><a xlink:href="http://www.example.orgMore" xlink:title="More">
<ellipse fill="#fffc87" stroke="#808080" cx="69" cy="-129" rx="30.5947" ry="18"/>
<text text-anchor="middle" x="69" y="-125.3" font-family="Times New Roman,serif" font-size="14.00">More</text>
</a>
</g>
</g>
<!-- http://www.example.orgMore&#45;&gt;http://www.example.orgpublishing -->
<g id="edge6" class="edge"><title>http://www.example.orgMore&#45;&gt;http://www.example.orgpublishing</title>
<path fill="none" stroke="black" d="M65.1268,-146.945C63.3453,-154.739 61.1879,-164.178 59.1895,-172.921"/>
<polygon fill="black" stroke="black" points="55.765,-172.196 56.9486,-182.725 62.589,-173.756 55.765,-172.196"/>
<text text-anchor="middle" x="76.1194" y="-155.251" font-family="Times New Roman,serif" font-size="8.00">gen</text>
</g>
<!-- http://www.example.orgMore&#45;&gt;http://www.example.orgwww.example.org -->
<g id="edge4" class="edge"><title>http://www.example.orgMore&#45;&gt;http://www.example.orgwww.example.org</title>
<path fill="none" stroke="black" d="M89.7385,-142.515C106.353,-152.541 130.042,-166.836 149.64,-178.662"/>
<polygon fill="black" stroke="black" points="147.947,-181.728 158.317,-183.898 151.563,-175.735 147.947,-181.728"/>
<text text-anchor="middle" x="102.872" y="-133.367" font-family="Times New Roman,serif" font-size="8.00">spe</text>
</g>
<!-- &#45;attrs1 -->
<g id="node5" class="node"><title>&#45;attrs1</title>
<polygon fill="none" stroke="gray" points="115.5,-75 16.5,-75 16.5,-39 121.5,-39 121.5,-69 115.5,-75"/>
<polyline fill="none" stroke="gray" points="115.5,-75 115.5,-69 "/>
<polyline fill="none" stroke="gray" points="121.5,-69 115.5,-69 "/>
<text text-anchor="start" x="27" y="-54" font-family="Times New Roman,serif" font-size="10.00">type:</text>
<text text-anchor="start" x="50" y="-54" font-family="Times New Roman,serif" font-size="10.00">prov:Collection</text>
</g>
<!-- &#45;attrs1&#45;&gt;http://www.example.orgMore -->
<g id="edge2" class="edge"><title>&#45;attrs1&#45;&gt;http://www.example.orgMore</title>
<path fill="none" stroke="gray" stroke-dasharray="5,2" d="M69,-75.3034C69,-86.1537 69,-100.083 69,-110.896"/>
</g>
</g>
</svg>
