<?xml version="1.0" encoding="UTF-8" standalone="no"?>
<!DOCTYPE svg PUBLIC "-//W3C//DTD SVG 1.1//EN"
 "http://www.w3.org/Graphics/SVG/1.1/DTD/svg11.dtd">
<!-- Generated by graphviz version 2.38.0 (20140413.2041)
 -->
<!-- Title: PROV Pages: 1 -->
<svg width="562pt" height="243pt"
 viewBox="0.00 0.00 562.00 243.00" xmlns="http://www.w3.org/2000/svg" xmlns:xlink="http://www.w3.org/1999/xlink">
<g id="graph0" class="graph" transform="scale(1 1) rotate(0) translate(4 239)">
<title>PROV</title>
<polygon fill="white" stroke="none" points="-4,4 -4,-239 558,-239 558,4 -4,4"/>
<g id="clust1" class="cluster"><title>clusterurn:uuid:ad52e0d8&#45;e7e3&#45;4e50&#45;9174&#45;48794808e302</title>
<g id="a_clust1"><a xlink:href="urn:uuid:ad52e0d8-e7e3-4e50-9174-48794808e302" xlink:title="ad52e0d8&#45;e7e3&#45;4e50&#45;9174&#45;48794808e302">
<polygon fill="none" stroke="black" points="8,-8 8,-227 546,-227 546,-8 8,-8"/>
<text text-anchor="middle" x="277" y="-15.8" font-family="Times New Roman,serif" font-size="14.00">ad52e0d8&#45;e7e3&#45;4e50&#45;9174&#45;48794808e302</text>
</a>
</g>
</g>
<!-- http://www.channel4.compublishing -->
<g id="node1" class="node"><title>http://www.channel4.compublishing</title>
<g id="a_node1"><a xlink:href="http://www.channel4.compublishing" xlink:title="publishing">
<polygon fill="#9fb1fc" stroke="#0000ff" points="533,-219 459,-219 459,-183 533,-183 533,-219"/>
<text text-anchor="middle" x="496" y="-197.3" font-family="Times New Roman,serif" font-size="14.00">publishing</text>
</a>
</g>
</g>
<!-- http://www.channel4.comchannel4 -->
<g id="node2" class="node"><title>http://www.channel4.comchannel4</title>
<g id="a_node2"><a xlink:href="http://www.channel4.comchannel4" xlink:title="channel4">
<ellipse fill="#fffc87" stroke="#808080" cx="496" cy="-129" rx="42.4939" ry="18"/>
<text text-anchor="middle" x="496" y="-125.3" font-family="Times New Roman,serif" font-size="14.00">channel4</text>
</a>
</g>
</g>
<!-- http://www.channel4.comchannel4&#45;&gt;http://www.channel4.compublishing -->
<g id="edge4" class="edge"><title>http://www.channel4.comchannel4&#45;&gt;http://www.channel4.compublishing</title>
<path fill="none" stroke="black" d="M496,-147.303C496,-155.017 496,-164.288 496,-172.888"/>
<polygon fill="black" stroke="black" points="492.5,-172.896 496,-182.896 499.5,-172.896 492.5,-172.896"/>
<text text-anchor="middle" x="508.99" y="-152.903" font-family="Times New Roman,serif" font-size="8.00">gen</text>
</g>
<!-- http://www.channel4.comwww.channel4.com -->
<g id="node4" class="node"><title>http://www.channel4.comwww.channel4.com</title>
<g id="a_node4"><a xlink:href="http://www.channel4.comwww.channel4.com" xlink:title="www.channel4.com">
<ellipse fill="#fffc87" stroke="#808080" cx="292" cy="-201" rx="82.5854" ry="18"/>
<text text-anchor="middle" x="292" y="-197.3" font-family="Times New Roman,serif" font-size="14.00">www.channel4.com</text>
</a>
</g>
</g>
<!-- http://www.channel4.comchannel4&#45;&gt;http://www.channel4.comwww.channel4.com -->
<g id="edge3" class="edge"><title>http://www.channel4.comchannel4&#45;&gt;http://www.channel4.comwww.channel4.com</title>
<path fill="none" stroke="black" d="M464.125,-140.938C432.03,-151.95 381.982,-169.124 344.109,-182.119"/>
<polygon fill="black" stroke="black" points="342.592,-178.94 334.269,-185.496 344.864,-185.561 342.592,-178.94"/>
<text text-anchor="middle" x="461.247" y="-153.759" font-family="Times New Roman,serif" font-size="8.00">spe</text>
</g>
<!-- &#45;attrs0 -->
<g id="node3" class="node"><title>&#45;attrs0</title>
<polygon fill="none" stroke="gray" points="531.5,-75 432.5,-75 432.5,-39 537.5,-39 537.5,-69 531.5,-75"/>
<polyline fill="none" stroke="gray" points="531.5,-75 531.5,-69 "/>
<polyline fill="none" stroke="gray" points="537.5,-69 531.5,-69 "/>
<text text-anchor="start" x="443" y="-54" font-family="Times New Roman,serif" font-size="10.00">type:</text>
<text text-anchor="start" x="466" y="-54" font-family="Times New Roman,serif" font-size="10.00">prov:Collection</text>
</g>
<!-- &#45;attrs0&#45;&gt;http://www.channel4.comchannel4 -->
<g id="edge1" class="edge"><title>&#45;attrs0&#45;&gt;http://www.channel4.comchannel4</title>
<path fill="none" stroke="gray" stroke-dasharray="5,2" d="M487.719,-75.3034C489.424,-86.1537 491.613,-100.083 493.312,-110.896"/>
</g>
<!-- &#45;attrs1 -->
<g id="node5" class="node"><title>&#45;attrs1</title>
<polygon fill="none" stroke="gray" points="429.5,-147 16.5,-147 16.5,-111 435.5,-111 435.5,-141 429.5,-147"/>
<polyline fill="none" stroke="gray" points="429.5,-147 429.5,-141 "/>
<polyline fill="none" stroke="gray" points="435.5,-141 429.5,-141 "/>
<text text-anchor="start" x="27" y="-126" font-family="Times New Roman,serif" font-size="10.00">description:</text>
<text text-anchor="start" x="77" y="-126" font-family="Times New Roman,serif" font-size="10.00">meta:Watch your favourite shows online, from Channel 4, E4, All 4 and Walter Presents</text>
</g>
<!-- &#45;attrs1&#45;&gt;http://www.channel4.comwww.channel4.com -->
<g id="edge2" class="edge"><title>&#45;attrs1&#45;&gt;http://www.channel4.comwww.channel4.com</title>
<path fill="none" stroke="gray" stroke-dasharray="5,2" d="M242.315,-147.303C252.545,-158.154 265.679,-172.083 275.873,-182.896"/>
</g>
</g>
</svg>
